<svg width="950" height="950" viewBox="0 0 950 950" fill="none" xmlns="http://www.w3.org/2000/svg">
<rect width="950" height="950" fill="#1A1E26"/>
<path d="M449.159 693L449.159 256.636L301.716 256.636C267.625 256.636 239.642 262.46 217.767 274.108C195.892 285.614 179.699 301.452 169.188 321.622C158.676 341.793 153.421 364.733 153.421 390.443C153.421 416.153 158.676 438.952 169.188 458.838C179.699 478.724 195.821 494.349 217.554 505.713C239.287 516.935 267.057 522.545 300.864 522.545L420.182 522.545L420.182 474.818L302.568 474.818C279.273 474.818 260.523 471.409 246.318 464.591C231.972 457.773 221.602 448.114 215.21 435.614C208.676 422.972 205.409 407.915 205.409 390.443C205.409 372.972 208.676 357.702 215.21 344.633C221.744 331.565 232.185 321.48 246.531 314.378C260.878 307.133 279.841 303.511 303.421 303.511L396.318 303.511L396.318 693L449.159 693ZM243.761 496.977L136.375 693L197.739 693L303.421 496.977L243.761 496.977Z" fill="#EDF9FE"/>
<path d="M798.977 393H746.136C743.011 377.801 737.543 364.449 729.73 352.943C722.06 341.438 712.685 331.778 701.605 323.966C690.668 316.011 678.523 310.045 665.17 306.068C651.818 302.091 637.898 300.102 623.409 300.102C596.989 300.102 573.054 306.778 551.605 320.131C530.298 333.483 513.324 353.156 500.682 379.151C488.182 405.145 481.932 437.034 481.932 474.818C481.932 512.602 488.182 544.491 500.682 570.486C513.324 596.48 530.298 616.153 551.605 629.506C573.054 642.858 596.989 649.534 623.409 649.534C637.898 649.534 651.818 647.545 665.17 643.568C678.523 639.591 690.668 633.696 701.605 625.884C712.685 617.929 722.06 608.199 729.73 596.693C737.543 585.045 743.011 571.693 746.136 556.636H798.977C795 578.937 787.756 598.895 777.244 616.509C766.733 634.122 753.665 649.108 738.04 661.466C722.415 673.682 704.872 682.986 685.412 689.378C666.094 695.77 645.426 698.966 623.409 698.966C586.193 698.966 553.097 689.875 524.119 671.693C495.142 653.511 472.344 627.659 455.724 594.136C439.105 560.614 430.795 520.841 430.795 474.818C430.795 428.795 439.105 389.023 455.724 355.5C472.344 321.977 495.142 296.125 524.119 277.943C553.097 259.761 586.193 250.67 623.409 250.67C645.426 250.67 666.094 253.866 685.412 260.259C704.872 266.651 722.415 276.026 738.04 288.384C753.665 300.599 766.733 315.514 777.244 333.128C787.756 350.599 795 370.557 798.977 393Z" fill="#EDF9FE"/>
</svg>
